<svg xmlns="http://www.w3.org/2000/svg" xmlns:xlink="http://www.w3.org/1999/xlink" width="500" zoomAndPan="magnify" viewBox="0 0 375 374.999991" height="500" preserveAspectRatio="xMidYMid meet" version="1.0"><defs><clipPath id="060a6f91d8"><path d="M 4 141.113281 L 370 141.113281 L 370 234 L 4 234 Z M 4 141.113281 " clip-rule="nonzero"/></clipPath></defs><g clip-path="url(#060a6f91d8)"><path fill="#188ded" d="M 66.664062 203.902344 C 74.167969 201.929688 81.75 200.90625 89.253906 199.957031 C 176.121094 189.074219 261.164062 197.984375 344.746094 223.183594 C 356.625 226.761719 365.445312 222.160156 368.578125 210.476562 C 371.199219 200.6875 363.402344 189.511719 353.710938 187.394531 C 297.234375 175.050781 240.246094 167.382812 182.242188 168.40625 C 144.417969 169.0625 107.035156 173.445312 70.378906 182.792969 C 69.285156 183.085938 68.121094 183.230469 66.519531 183.597656 C 67.246094 181.699219 68.558594 181.1875 69.578125 180.53125 C 79.925781 173.445312 90.273438 166.433594 100.621094 159.347656 C 104.996094 156.355469 106.378906 151.898438 104.628906 147.589844 C 102.882812 143.425781 98.875 141.234375 94.355469 141.890625 C 92.535156 142.183594 91.074219 143.0625 89.617188 144.011719 C 63.238281 161.90625 36.859375 179.800781 11.0625 198.644531 C 8.292969 200.617188 5.742188 202.660156 4.941406 206.3125 C 3.699219 211.9375 7.78125 217.195312 14.121094 217.558594 C 30.738281 218.511719 47.132812 220.554688 63.53125 223.476562 C 78.832031 226.179688 94.136719 229.246094 109.222656 232.972656 C 113.449219 233.992188 117.457031 233.628906 120.296875 229.902344 C 122.703125 226.761719 123.066406 223.257812 121.171875 219.679688 C 119.640625 216.757812 117.019531 215.441406 113.886719 214.640625 C 99.019531 211.058594 84.082031 207.992188 69.070312 205.214844 C 68.339844 204.925781 67.320312 205.289062 66.664062 203.902344 Z M 66.664062 203.902344 " fill-opacity="1" fill-rule="nonzero"/></g></svg>